<svg width="25" height="25" viewBox="0 0 25 25" fill="none" xmlns="http://www.w3.org/2000/svg">
<path d="M12.4999 9.0281H9.02806M12.4999 9.0281V2.08331H9.02806C8.10712 2.08331 7.22391 2.44915 6.57271 3.10035C5.92151 3.75155 5.55566 4.63477 5.55566 5.55571C5.55566 6.47665 5.92151 7.35986 6.57271 8.01106C7.22391 8.66226 8.10712 9.0281 9.02806 9.0281M12.4999 9.0281V15.9719H9.02806M12.4999 9.0281H15.9718M9.02806 9.0281C8.10726 9.0281 7.22418 9.39389 6.57307 10.045C5.92197 10.6961 5.55619 11.5792 5.55619 12.5C5.55619 13.4208 5.92197 14.3039 6.57307 14.955C7.22418 15.6061 8.10726 15.9719 9.02806 15.9719M9.02806 15.9719C8.34143 15.9719 7.67022 16.1755 7.0993 16.5569C6.52837 16.9383 6.08337 17.4805 5.82057 18.1149C5.55776 18.7492 5.48894 19.4472 5.62282 20.1207C5.7567 20.7941 6.08726 21.4128 6.57271 21.8983C7.05815 22.3839 7.67668 22.7147 8.35009 22.8488C9.0235 22.9828 9.72155 22.9142 10.356 22.6516C10.9904 22.389 11.5327 21.9442 11.9143 21.3734C12.2959 20.8025 12.4997 20.1314 12.4999 19.4448M15.9718 9.0281C15.051 9.0281 14.1679 9.39389 13.5168 10.045C12.8657 10.6961 12.4999 11.5792 12.4999 12.5C12.4999 13.4208 12.8657 14.3039 13.5168 14.955C14.1679 15.6061 15.051 15.9719 15.9718 15.9719C16.8926 15.9719 17.7757 15.6061 18.4268 14.955C19.0779 14.3039 19.4437 13.4208 19.4437 12.5C19.4437 11.5792 19.0779 10.6961 18.4268 10.045C17.7757 9.39389 16.8926 9.0281 15.9718 9.0281ZM15.9718 9.0281C16.8927 9.0281 17.776 8.66226 18.4272 8.01106C19.0784 7.35986 19.4442 6.47665 19.4442 5.55571C19.4442 4.63477 19.0784 3.75155 18.4272 3.10035C17.776 2.44915 16.8927 2.08331 15.9718 2.08331" stroke="white" stroke-width="1.5625" stroke-linecap="round" stroke-linejoin="round"/>
</svg>
